<?xml version="1.0" encoding="utf-8"?>
<!-- Generator: Adobe Illustrator 22.1.0, SVG Export Plug-In . SVG Version: 6.00 Build 0)  -->
<svg version="1.1" id="Laag_1" xmlns="http://www.w3.org/2000/svg" xmlns:xlink="http://www.w3.org/1999/xlink" x="0px" y="0px"
	 viewBox="0 0 139.5 139.5" style="enable-background:new 0 0 139.5 139.5;" xml:space="preserve">
<style type="text/css">
	.st0{fill:#EC6E70;}
	.st1{fill:#E7E6E6;}
</style>
<image style="display:none;overflow:visible;" width="276" height="155" xlink:href="C896197C.jpg"  transform="matrix(1 0 0 1 -65.5937 21.4062)">
</image>
<g>
	<path class="st0" d="M95.5,102.4c-2.8,0.1-5.1-0.9-7.1-3c-4.7-4.9-9.7-9.6-14.4-14.5c-2.8-3-5-2.9-7.9,0.1
		c-4.7,5-9.6,9.7-14.4,14.5c-3.8,3.8-9.2,4.4-12.4,1.2c-3.6-3.5-3-8.6,1.3-12.7c5-4.8,9.8-9.9,14.9-14.7c2.5-2.4,2.7-4.1,0.1-6.5
		c-4.3-3.9-8.3-8.2-12.4-12.3c-0.9-0.9-1.9-1.9-2.8-2.8c-4.2-4.6-4.5-10.1-0.7-13.3c3.5-3,8.9-2,12.9,2.3c4.9,5.2,10,10.2,14.9,15.5
		c2,2.1,3.3,2,5.2,0c5.2-5.4,10.5-10.7,16-15.8c4.4-4.1,8.8-4.3,11.9-0.9c3.2,3.4,2.7,7.7-1.4,11.9c-5,5.1-10,10.2-15.2,15.2
		c-2.5,2.3-2.7,4-0.1,6.5c5.8,5.7,11.4,11.6,17,17.5c2.4,2.5,2.2,5.3,0.8,8.3C100.3,101.5,98.2,102.3,95.5,102.4z"/>
	<g>
		<path class="st1" d="M69.7,12.1c31.8,0,57.6,25.8,57.6,57.6s-25.8,57.6-57.6,57.6s-57.6-25.8-57.6-57.6S37.9,12.1,69.7,12.1
			 M69.7,0.1C31.3,0.1,0.1,31.3,0.1,69.7s31.2,69.6,69.6,69.6s69.6-31.2,69.6-69.6S108.2,0.1,69.7,0.1L69.7,0.1z"/>
	</g>
</g>
</svg>
