<?xml version="1.0" encoding="utf-8"?>
<!-- Generator: Adobe Illustrator 22.1.0, SVG Export Plug-In . SVG Version: 6.00 Build 0)  -->
<svg version="1.1" id="Laag_1" xmlns="http://www.w3.org/2000/svg" xmlns:xlink="http://www.w3.org/1999/xlink" x="0px" y="0px"
	 viewBox="0 0 139.5 139.5" style="enable-background:new 0 0 139.5 139.5;" xml:space="preserve">
<style type="text/css">
	.st0{fill:#63BB91;}
	.st1{fill:#E7E6E6;}
</style>
<image style="display:none;overflow:visible;" width="276" height="155" xlink:href="4FAC30E.jpg"  transform="matrix(1 0 0 1 -65.5937 21.4062)">
</image>
<g>
	<path class="st0" d="M47.5,32.2c6.3,0.1,11.6,2.3,15.9,7c5.8,6.2,6.3,6.2,12.2,0.4c10.1-10,22.9-10.1,32.8-0.4
		c8.6,8.5,8.3,22.5-0.9,31.8c-11.5,11.6-23.1,23-34.6,34.7c-2.4,2.5-3.9,2.5-6.4,0C54.9,93.8,42.9,82.2,31.3,70.2
		c-7.2-7.3-8.1-16.1-4.3-25.4C30.1,37.4,38.7,32.2,47.5,32.2z"/>
	<g>
		<path class="st1" d="M69.7,12.1c31.8,0,57.6,25.8,57.6,57.6s-25.8,57.6-57.6,57.6s-57.6-25.8-57.6-57.6S37.9,12.1,69.7,12.1
			 M69.7,0.1C31.3,0.1,0.1,31.3,0.1,69.7s31.2,69.6,69.6,69.6s69.6-31.2,69.6-69.6S108.2,0.1,69.7,0.1L69.7,0.1z"/>
	</g>
</g>
</svg>
